<svg width="133" height="41" viewBox="0 0 133 41" fill="none" xmlns="http://www.w3.org/2000/svg">
<path fill-rule="evenodd" clip-rule="evenodd" d="M46.6535 24.8141V0L43.9244 0.162184C41.8777 0.291931 40.2532 1.97864 40.2532 4.05459V24.8141H46.6535ZM34.2754 2.78956L32.6184 5.644C32.391 6.03324 31.9362 6.26029 31.5138 6.16298L30.1493 5.93593C29.4671 5.83862 29.0772 5.12501 29.3046 4.50871L30.0194 2.59494C30.3442 1.75159 31.1565 1.20016 32.0661 1.20016H33.3332C34.1454 1.16773 34.6652 2.07595 34.2754 2.78956ZM37.2318 11.3528C36.4196 9.95804 35.2825 8.92006 33.8205 8.23889C32.3585 7.52529 30.7016 7.20092 28.7848 7.20092C26.9654 7.20092 25.341 7.55772 23.879 8.27133C22.417 8.98494 21.2475 10.0229 20.4028 11.3853C19.5581 12.7476 19.1032 14.3694 19.1032 16.2183C19.1032 19.1376 19.9804 21.3758 21.7348 22.9003C23.4892 24.4248 25.7958 25.2033 28.6548 25.2033C30.5067 25.2033 32.1961 24.8789 33.6581 24.1978C35.1525 23.5166 36.3221 22.5111 37.1668 21.1811C38.0115 19.8512 38.4664 18.2618 38.4664 16.4129C38.4664 14.4019 38.0765 12.7476 37.2318 11.3528ZM31.059 19.0728C30.5067 19.6891 29.7595 19.981 28.7198 19.981C27.7452 19.981 27.0304 19.6566 26.5106 18.9754C25.9908 18.2943 25.7309 17.3861 25.7309 16.1859C25.7309 14.9857 25.9908 14.0451 26.5431 13.3639C27.0954 12.6827 27.8751 12.3584 28.8498 12.3584C29.7919 12.3584 30.5067 12.7476 31.059 13.4936C31.5788 14.2397 31.8387 15.2128 31.8387 16.3805C31.8712 17.5807 31.5788 18.4889 31.059 19.0728ZM55.7828 3.76269C55.7828 4.44386 55.5229 5.06016 55.0031 5.54671C54.4832 6.03326 53.8984 6.29275 53.1837 6.29275C52.5014 6.29275 51.8842 6.03326 51.3968 5.54671C50.9095 5.06016 50.6496 4.44386 50.6496 3.76269C50.6496 3.04908 50.9095 2.46522 51.3968 1.94623C51.8842 1.42724 52.5014 1.16775 53.1837 1.16775C53.8984 1.16775 54.4832 1.42724 55.0031 1.94623C55.5229 2.43278 55.7828 3.04908 55.7828 3.76269ZM56.0751 24.7816V7.75235H53.476C51.3643 7.75235 49.6749 9.47149 49.6749 11.5474V24.7816H56.0751ZM76.2506 24.8141H73.0018L72.0596 23.5815C71.3448 24.0681 70.5976 24.4573 69.7854 24.7492C68.9732 25.0412 68.161 25.2033 67.3163 25.2033C64.6847 25.2033 62.5729 24.4573 60.9485 22.9652C59.3566 21.4731 58.5444 19.2674 58.5444 16.3157C58.5444 13.3315 59.3566 11.0609 60.981 9.50396C62.6054 7.947 64.8147 7.16852 67.5762 7.16852C68.3884 7.16852 69.1356 7.29826 69.8179 7.52532V3.27611C69.8179 1.65427 71.0849 0.324367 72.7094 0.227057L76.2506 0V24.8141ZM68.2909 20.273C68.8107 20.273 69.3306 20.1108 69.8504 19.754V12.553C69.1681 12.2611 68.5508 12.0989 68.031 12.0989C67.2188 12.0989 66.5365 12.4881 65.9842 13.2342C65.4319 13.9802 65.172 15.0182 65.172 16.2832C65.172 17.5807 65.4319 18.5538 65.9842 19.2674C66.5365 19.9486 67.2838 20.273 68.2909 20.273ZM92.105 8.36867C90.8704 7.55775 89.376 7.16851 87.6216 7.16851C85.8997 7.16851 84.3402 7.52531 83.0082 8.30379C81.6112 9.04984 80.5391 10.0878 79.7269 11.4826C78.9147 12.8774 78.5248 14.4992 78.5248 16.3481C78.5248 18.2294 78.9471 19.8188 79.8243 21.1812C80.7015 22.5435 81.9036 23.5491 83.4306 24.2302C84.9575 24.9114 86.7444 25.2358 88.7262 25.2358C90.0907 25.2358 91.4552 25.0736 92.7873 24.7168C93.8919 24.3924 94.7691 24.068 95.4513 23.6464C95.6463 23.5166 95.7437 23.2247 95.6463 22.9976L95.094 21.7002C94.5417 20.3703 93.1122 19.5918 91.7151 19.9486C90.9354 20.1432 90.1557 20.2405 89.3435 20.2405C88.2714 20.2405 87.4267 20.0459 86.7769 19.6242C86.1271 19.2025 85.6723 18.6187 85.4449 17.9051H93.9569C94.964 17.9051 95.8087 17.0941 95.8087 16.0562C95.8087 14.4019 95.4838 12.9098 94.8665 11.5799C94.2493 10.2176 93.3396 9.17959 92.105 8.36867ZM85.8997 13.0396C86.3545 12.553 86.8744 12.2935 87.4592 12.2935C88.1739 12.2935 88.7262 12.553 89.1161 13.072C89.4734 13.591 89.6684 14.1424 89.6684 14.7263H85.2499C85.2174 14.0775 85.4449 13.5261 85.8997 13.0396ZM104.581 25.2033C103.573 25.2033 102.306 25.0411 100.844 24.7168C99.5448 24.4248 98.4727 24.0032 97.6605 23.4517C97.4656 23.322 97.3681 23.0301 97.4981 22.8355L98.4727 20.6622C98.8301 19.8837 99.7073 19.462 100.552 19.7215C100.877 19.8188 101.234 19.9161 101.624 20.0135C102.599 20.2405 103.378 20.3703 103.996 20.3703C104.418 20.3703 104.775 20.3054 105.035 20.1432C105.328 20.0135 105.458 19.8188 105.458 19.5918C105.458 19.462 105.295 19.2674 104.97 19.0728C104.646 18.8782 104.256 18.6835 103.768 18.5214C101.981 17.9051 100.519 17.1266 99.3824 16.2832C98.2453 15.4074 97.6605 14.2722 97.6605 12.8774C97.6605 11.0934 98.3428 9.69857 99.6748 8.69304C101.007 7.6875 102.859 7.16851 105.23 7.16851C106.237 7.16851 107.342 7.29826 108.544 7.55775C109.161 7.6875 109.714 7.88212 110.234 8.10917C111.078 8.49841 111.436 9.50395 111.046 10.3473L110.071 12.553C109.974 12.8125 109.681 12.9098 109.421 12.8125C108.869 12.5854 108.284 12.4233 107.699 12.2611C106.952 12.0665 106.27 11.9691 105.685 11.9691C105.165 11.9691 104.743 12.034 104.418 12.1962C104.093 12.3259 103.931 12.5206 103.931 12.7476C103.931 12.8774 104.093 13.0396 104.418 13.2342C104.743 13.4288 105.165 13.6234 105.718 13.7856C107.472 14.4019 108.902 15.1479 110.039 16.0237C111.143 16.8995 111.696 18.0348 111.696 19.462C111.696 21.2785 111.111 22.6733 109.909 23.6464C108.674 24.7168 106.92 25.2033 104.581 25.2033ZM3.80115 24.7168C5.32811 25.0736 6.72512 25.2682 7.95968 25.2682C9.8765 25.2682 11.5659 24.9763 13.0279 24.3924C14.4574 23.7761 15.562 22.9327 16.3417 21.8948C17.1214 20.8244 17.5113 19.6242 17.5113 18.2619C17.5113 17.0617 17.1539 15.9588 16.4717 14.9857C15.7569 14.0126 14.9122 13.1693 13.9376 12.4557C12.9304 11.7421 11.6959 10.9636 10.2339 10.1202L8.96682 9.40663C8.12212 8.95251 7.50484 8.59571 7.14747 8.33622C6.7901 8.04428 6.59516 7.75235 6.59516 7.39555C6.59516 6.909 6.82258 6.51976 7.24493 6.19539C7.69977 5.87102 8.25208 5.70884 8.96682 5.70884C9.77904 5.70884 10.4938 5.77371 11.176 5.90346C11.8258 6.06564 12.7355 6.32514 13.9051 6.71438C13.9701 6.71438 14.0675 6.68194 14.1 6.61707L15.3995 3.66533C15.7244 2.91928 15.432 2.04349 14.6848 1.68669C14.0675 1.42719 13.3853 1.1677 12.6705 0.973078C11.371 0.64871 10.1364 0.45409 8.90185 0.45409C7.11498 0.45409 5.55553 0.74602 4.2235 1.32988C2.89148 1.91374 1.85184 2.72466 1.10461 3.76264C0.357374 4.80061 0 6.00077 0 7.29824C0 8.56327 0.357374 9.66612 1.03963 10.7041C1.75438 11.6772 2.56659 12.4881 3.44378 13.1044C4.35346 13.7207 5.58802 14.4992 7.17996 15.4399L8.28457 16.0562C9.19424 16.5751 9.84401 16.9968 10.2664 17.2888C10.6887 17.5807 10.8836 17.905 10.8836 18.197C10.8836 18.6835 10.5912 19.1052 10.0389 19.4944C9.48664 19.8837 8.73941 20.0783 7.79724 20.0783C6.95254 20.0783 5.94539 19.9161 4.84079 19.5918L3.47627 19.2025C2.69654 18.9755 1.88433 19.3647 1.55945 20.1107L0.324885 22.9327C0.227419 23.1598 0.324885 23.4517 0.552304 23.5815C1.39701 24.0032 2.50161 24.3924 3.80115 24.7168Z" fill="#2F0A77"/>
<path fill-rule="evenodd" clip-rule="evenodd" d="M131.283 25.1589H117.974C117.035 25.1589 116.258 24.315 116.258 23.2953C116.258 22.2756 117.035 21.4316 117.974 21.4316H131.283C132.222 21.4316 132.999 22.2756 132.999 23.2953C132.999 24.3502 132.222 25.1589 131.283 25.1589Z" fill="#00C9DB"/>
<path fill-rule="evenodd" clip-rule="evenodd" d="M122.967 11.1814H117.919C117.01 11.1814 116.258 10.3375 116.258 9.31774C116.258 8.29801 117.01 7.4541 117.919 7.4541H122.967C123.876 7.4541 124.628 8.29801 124.628 9.31774C124.628 10.3375 123.876 11.1814 122.967 11.1814Z" fill="#D74149"/>
<path fill-rule="evenodd" clip-rule="evenodd" d="M128.457 20.4997H118.01C117.051 20.4997 116.258 19.6558 116.258 18.6361C116.258 17.6164 117.051 16.7725 118.01 16.7725H128.457C129.415 16.7725 130.209 17.6164 130.209 18.6361C130.176 19.691 129.415 20.4997 128.457 20.4997Z" fill="#57DD6D"/>
<path fill-rule="evenodd" clip-rule="evenodd" d="M130.359 15.8406H117.968C117.032 15.8406 116.258 14.9966 116.258 13.9769C116.258 12.9572 117.032 12.1133 117.968 12.1133H130.359C131.295 12.1133 132.069 12.9572 132.069 13.9769C132.069 14.9966 131.295 15.8406 130.359 15.8406Z" fill="#FFBA00"/>
<path fill-rule="evenodd" clip-rule="evenodd" d="M78.6878 38.113C79.1751 38.113 79.435 38.0157 79.435 38.0157V29.5172C79.435 29.5172 79.1751 29.4199 78.6878 29.4199C78.1679 29.4199 77.9405 29.5172 77.9405 29.5172V38.0157C77.9405 38.0157 78.1679 38.113 78.6878 38.113ZM41.7484 33.5394H43.1129C43.9251 33.5394 44.3474 33.0853 44.3474 32.2743C44.3474 31.4634 43.9251 31.0093 43.1129 31.0093H41.7484V33.5394ZM43.3078 29.7767C44.8673 29.7767 45.9069 30.7822 45.9069 32.2743C45.9069 33.4096 45.2896 34.2854 44.315 34.6422L46.3292 38.0481C46.3292 38.0481 46.0368 38.1454 45.4521 38.1454C44.9322 38.1454 44.6074 38.0481 44.6074 38.0481L42.6905 34.8044H41.7484V38.0481C41.7484 38.0481 41.4885 38.1454 41.0011 38.1454C40.4488 38.1454 40.2539 38.0481 40.2539 38.0481V29.7767H43.3078ZM52.1121 29.874C52.1121 29.874 52.3721 29.7767 52.8594 29.7767C53.3467 29.7767 53.6066 29.874 53.6066 29.874V38.0156C53.6066 38.0156 53.3467 38.1129 52.8594 38.1129C52.3071 38.1129 52.1121 38.0156 52.1121 38.0156V34.48H49.0582V38.0156C49.0582 38.0156 48.7983 38.1129 48.311 38.1129C47.7912 38.1129 47.5637 38.0156 47.5637 38.0156V29.874C47.5637 29.874 47.8237 29.7767 48.311 29.7767C48.7983 29.7767 49.0582 29.874 49.0582 29.874V33.215H52.1121V29.874ZM58.7073 29.7767C58.22 29.7767 57.9601 29.874 57.9601 29.874V38.0156C57.9601 38.0156 58.1875 38.1129 58.7073 38.1129C59.1946 38.1129 59.4545 38.0156 59.4545 38.0156V29.874C59.4545 29.874 59.1946 29.7767 58.7073 29.7767ZM65.9522 38.0156C65.9522 38.0156 65.6923 38.113 65.205 38.113C64.6852 38.113 64.4577 38.0156 64.4577 38.0156V33.8962C64.4577 33.4096 64.1978 33.0528 63.5156 33.0528C63.1257 33.0528 62.7684 33.215 62.5084 33.4745V37.9832C62.5084 37.9832 62.2485 38.0805 61.7612 38.0805C61.2414 38.0805 61.014 37.9832 61.014 37.9832V32.1122C61.014 32.1122 61.2414 32.0149 61.7612 32.0149C62.2485 32.0149 62.5084 32.1122 62.5084 32.1122V32.469C62.9308 32.1122 63.4506 31.9175 64.1004 31.9175C65.3024 31.9175 65.9197 32.6312 65.9197 33.6691V38.0156H65.9522ZM70.4357 37.0426C69.6884 37.0426 69.3311 36.8155 69.3311 35.8424V33.0853H70.6956C70.6956 33.0853 70.793 32.8582 70.793 32.5339C70.793 32.2095 70.6956 32.0149 70.6956 32.0149H69.3311V30.7174C68.8112 30.685 68.2589 30.7823 67.8691 31.0094V32.0149H66.9919C66.9919 32.0149 66.8944 32.2095 66.8944 32.5663C66.8944 32.8907 66.9919 33.0853 66.9919 33.0853H67.8691V35.9073C67.8691 37.4318 68.5189 38.2103 70.0133 38.2103C70.2732 38.2103 70.5656 38.2103 70.858 38.113C70.858 38.113 70.9555 37.9184 70.9555 37.594C70.9555 37.2696 70.858 37.0101 70.858 37.0101C70.858 37.0101 70.6306 37.0426 70.4357 37.0426ZM74.3667 33.0204C73.7819 33.0204 73.327 33.4097 73.2296 34.4801H75.2763C75.2763 34.4152 75.2845 34.3503 75.2926 34.2855C75.3007 34.2206 75.3088 34.1557 75.3088 34.0908C75.2763 33.5394 75.0814 33.0204 74.3667 33.0204ZM73.1971 35.5181C73.2945 36.6858 73.8144 37.0102 74.6266 37.0102C75.4063 37.0102 75.9586 36.7182 75.9586 36.7182C76.2185 36.9453 76.381 37.3345 76.4134 37.7562C76.4134 37.7562 75.7312 38.2428 74.4316 38.2428C72.5473 38.2428 71.7026 37.1399 71.7026 35.0315C71.7026 32.8258 72.7422 31.8852 74.3667 31.8852C75.7962 31.8852 76.7383 32.6312 76.7383 34.2855C76.7383 35.0315 76.6084 35.5181 76.6084 35.5181H73.1971ZM82.4889 38.0156C82.4889 38.0156 82.229 38.113 81.7417 38.113C81.2218 38.113 80.9944 38.0156 80.9944 38.0156V32.1122C80.9944 32.1122 81.2218 32.0149 81.7417 32.0149C82.229 32.0149 82.4889 32.1122 82.4889 32.1122V38.0156ZM82.4889 30.9769C82.4889 30.9769 82.229 31.0742 81.7417 31.0742C81.2218 31.0742 80.9944 30.9769 80.9944 30.9769V29.647C80.9944 29.647 81.2218 29.5497 81.7417 29.5497C82.229 29.5497 82.4889 29.647 82.4889 29.647V30.9769ZM85.1531 34.0584C85.1531 33.2474 85.543 32.9231 86.1278 32.9231C86.7126 32.9231 87.1025 33.2474 87.1025 34.0584C87.1025 34.8368 86.7126 35.1612 86.1278 35.1612C85.543 35.1612 85.1531 34.8368 85.1531 34.0584ZM84.8932 39.1185C84.8932 38.7292 85.1206 38.4373 85.2831 38.2751C85.6101 38.3699 85.9851 38.4168 86.3413 38.4614C87.0821 38.5541 87.7417 38.6366 87.7197 39.1185C87.7197 39.605 87.1999 39.9618 86.0953 39.9618C85.2506 39.9618 84.8932 39.5726 84.8932 39.1185ZM89.1492 32.9879C89.2792 32.696 89.2792 32.177 89.1492 31.8851L87.4923 32.1122C87.1349 31.95 86.6801 31.8527 86.1603 31.8527C84.6008 31.8527 83.7886 32.6636 83.7886 33.9935C83.7886 34.8693 84.146 35.5504 84.8607 35.8748C84.5683 36.1992 84.2759 36.6533 84.2759 37.1723C84.2759 37.4642 84.3734 37.6913 84.5359 37.8535C84.211 38.0481 83.4962 38.5671 83.4962 39.4104C83.4962 40.3511 84.2759 40.9998 86.0628 40.9998C87.9147 40.9998 89.1167 40.1565 89.1167 38.9563C89.1167 37.4487 87.8316 37.2865 86.8077 37.1572C86.1795 37.0779 85.6496 37.011 85.5755 36.6533C85.543 36.4587 85.608 36.2965 85.7054 36.1343H86.1278C87.7197 36.1343 88.4995 35.3234 88.4995 33.9935C88.4995 33.5394 88.402 33.1826 88.2396 32.8582L89.1492 32.9879ZM92.5603 33.0204C91.9756 33.0204 91.5207 33.4097 91.4232 34.4801H93.47C93.47 34.4152 93.4782 34.3503 93.4863 34.2855L93.4863 34.2854C93.4944 34.2205 93.5025 34.1557 93.5025 34.0908C93.5025 33.5394 93.2751 33.0204 92.5603 33.0204ZM91.4232 35.5181C91.5207 36.6858 92.0405 37.0102 92.8527 37.0102C93.6325 37.0102 94.1848 36.7182 94.1848 36.7182C94.4447 36.9453 94.6071 37.3345 94.6396 37.7562C94.6396 37.7562 93.9574 38.2428 92.6578 38.2428C90.7735 38.2428 89.9288 37.1399 89.9288 35.0315C89.9288 32.8258 90.9684 31.8852 92.5928 31.8852C94.0223 31.8852 94.9645 32.6312 94.9645 34.2855C94.9645 35.0315 94.8345 35.5181 94.8345 35.5181H91.4232ZM100.293 38.113C100.78 38.113 101.04 38.0156 101.04 38.0156H101.007V33.6691C101.007 32.6312 100.39 31.9175 99.188 31.9175C98.5382 31.9175 98.0184 32.1122 97.596 32.469V32.1122C97.596 32.1122 97.3361 32.0149 96.8488 32.0149C96.329 32.0149 96.1016 32.1122 96.1016 32.1122V37.9832C96.1016 37.9832 96.329 38.0805 96.8488 38.0805C97.3361 38.0805 97.596 37.9832 97.596 37.9832V33.4745C97.8559 33.215 98.2133 33.0528 98.6032 33.0528C99.2854 33.0528 99.5453 33.4096 99.5453 33.8962V38.0156C99.5453 38.0156 99.7728 38.113 100.293 38.113ZM104.419 35.8424C104.419 36.8155 104.776 37.0426 105.523 37.0426C105.718 37.0426 105.946 37.0101 105.946 37.0101C105.946 37.0101 106.043 37.2696 106.043 37.594C106.043 37.9184 105.946 38.113 105.946 38.113C105.653 38.2103 105.361 38.2103 105.101 38.2103C103.606 38.2103 102.957 37.4318 102.957 35.9073V33.0853H102.079C102.079 33.0853 101.982 32.8907 101.982 32.5663C101.982 32.2095 102.079 32.0149 102.079 32.0149H102.957V31.0094C103.347 30.7823 103.899 30.685 104.419 30.7174V32.0149H105.783C105.783 32.0149 105.881 32.2095 105.881 32.5339C105.881 32.8582 105.783 33.0853 105.783 33.0853H104.419V35.8424ZM108.285 34.4801C108.382 33.4097 108.837 33.0204 109.422 33.0204C110.169 33.0204 110.364 33.5394 110.364 34.0908C110.364 34.1557 110.356 34.2206 110.348 34.2855C110.34 34.3503 110.332 34.4152 110.332 34.4801H108.285ZM109.714 37.0102C108.902 37.0102 108.382 36.6858 108.285 35.5181H111.696C111.696 35.5181 111.826 35.0315 111.826 34.2855C111.826 32.6312 110.884 31.8852 109.454 31.8852C107.83 31.8852 106.79 32.8258 106.79 35.0315C106.79 37.1399 107.635 38.2428 109.519 38.2428C110.819 38.2428 111.501 37.7562 111.501 37.7562C111.469 37.3345 111.306 36.9453 111.046 36.7182C111.046 36.7182 110.494 37.0102 109.714 37.0102Z" fill="#8872B2"/>
</svg>
